<svg width="24" height="24" viewBox="0 0 24 24" fill="none" xmlns="http://www.w3.org/2000/svg">
<path fill-rule="evenodd" clip-rule="evenodd" d="M15.3335 10C15.4653 10 15.5942 10.0419 15.7038 10.1204C15.8134 10.1989 15.8988 10.3105 15.9493 10.441C15.9997 10.5715 16.0129 10.7151 15.9872 10.8536C15.9615 10.9922 15.898 11.1194 15.8048 11.2193L12.4713 14.7909C12.3463 14.9248 12.1768 15 12 15C11.8232 15 11.6537 14.9248 11.5287 14.7909L8.1952 11.2193C8.10199 11.1194 8.03852 10.9922 8.0128 10.8536C7.98709 10.7151 8.00029 10.5715 8.05074 10.441C8.10119 10.3105 8.18662 10.1989 8.29623 10.1204C8.40584 10.0419 8.53471 10 8.66655 10H15.3335Z" fill="black"/>
</svg>
