<svg width="24" height="24" viewBox="0 0 24 24" fill="none" xmlns="http://www.w3.org/2000/svg">
<path fill-rule="evenodd" clip-rule="evenodd" d="M15.3335 15C15.4653 15 15.5942 14.9581 15.7038 14.8796C15.8134 14.8011 15.8988 14.6895 15.9493 14.559C15.9997 14.4285 16.0129 14.2849 15.9872 14.1464C15.9615 14.0078 15.898 13.8806 15.8048 13.7807L12.4713 10.2091C12.3463 10.0752 12.1768 10 12 10C11.8232 10 11.6537 10.0752 11.5287 10.2091L8.1952 13.7807C8.10199 13.8806 8.03852 14.0078 8.0128 14.1464C7.98709 14.2849 8.00029 14.4285 8.05074 14.559C8.10119 14.6895 8.18662 14.8011 8.29623 14.8796C8.40584 14.9581 8.53471 15 8.66655 15H15.3335Z" fill="black"/>
</svg>
